# This file uses centimeters as units for non-parametric coordinates.

mtllib bomb.mtl
g default
v -0.719985 1.071270 0.292403
v 0.000000 1.062572 0.576871
v 0.719985 1.071270 0.292403
v -0.760154 1.505148 0.292403
v 0.000000 1.484499 0.576871
v 0.760154 1.505148 0.292403
v -0.717345 2.032621 0.292403
v 0.000000 2.032621 0.576871
v 0.717345 2.032621 0.292403
v -0.862669 2.032621 -0.085453
v 0.862669 2.032621 -0.085453
v -0.862669 2.032621 -0.349953
v 0.862669 2.032621 -0.349953
v -0.968256 1.505148 -0.349953
v 0.968256 1.505148 -0.349953
v -0.865308 1.037153 -0.349953
v 0.865308 0.998241 -0.349953
v -0.865308 1.037153 -0.085453
v 0.865308 1.021766 -0.085453
v 0.936885 1.505148 -0.085453
v -0.936885 1.505148 -0.085453
v 0.436272 1.060213 0.472443
v 0.435216 2.032621 0.472443
v 0.477451 1.492759 0.472443
v -0.436272 1.060213 0.472443
v -0.435216 2.032621 0.472443
v -0.477451 1.492759 0.472443
v -0.370480 2.404403 -0.032474
v -0.336415 2.308040 0.262305
v 0.000000 2.308040 0.343026
v 0.000000 2.404403 0.116762
v 0.370480 2.404403 -0.032474
v 0.336415 2.308040 0.262305
v 0.519614 2.308040 0.145396
v 0.623817 2.308040 -0.125541
v -0.460390 2.404403 -0.349951
v 0.460390 2.404403 -0.349951
v 0.623817 2.308040 -0.349951
v -0.623817 2.308040 -0.125541
v -0.623817 2.308040 -0.349951
v -0.519614 2.308040 0.145396
v -0.344783 0.576690 -0.085453
v -0.344830 0.576689 -0.349952
v -0.000000 0.579049 -0.349656
v -0.000000 0.579045 -0.085415
v 0.344783 0.576690 -0.085453
v 0.344830 0.576689 -0.349952
v 0.704783 0.762392 -0.349952
v 0.704583 0.786096 -0.112222
v -0.369240 0.744812 0.332269
v -0.000000 0.746820 0.421072
v 0.369240 0.744811 0.332269
v 0.586552 0.782494 0.194104
v -0.704583 0.801483 -0.112222
v -0.586552 0.782494 0.194104
v -0.704783 0.801304 -0.349952
v -0.719985 1.071270 -0.992010
v 0.000000 1.062572 -1.276479
v 0.719985 1.071270 -0.992010
v -0.760154 1.505148 -0.992010
v 0.000000 1.484499 -1.276479
v 0.760154 1.505148 -0.992010
v -0.717345 2.032621 -0.992010
v 0.000000 2.032621 -1.276479
v 0.717345 2.032621 -0.992010
v -0.862669 2.032621 -0.614155
v 0.862669 2.032621 -0.614155
v -0.968256 1.505148 -0.349654
v 0.968256 1.505148 -0.349654
v -0.865308 1.037153 -0.614155
v 0.865308 1.010690 -0.614155
v 0.936885 1.505148 -0.614155
v -0.936885 1.505148 -0.614155
v 0.436272 1.060213 -1.172051
v 0.435216 2.032621 -1.172051
v 0.477451 1.492759 -1.172051
v -0.436272 1.060213 -1.172051
v -0.435216 2.032621 -1.172051
v -0.477451 1.492759 -1.172051
v -0.363546 2.404403 -0.656728
v -0.336415 2.308040 -0.961913
v 0.000000 2.308040 -1.042633
v 0.000000 2.404403 -0.826351
v 0.363546 2.404403 -0.656728
v 0.336415 2.308040 -0.961913
v 0.519614 2.308040 -0.845004
v 0.623817 2.308040 -0.574067
v -0.623817 2.308040 -0.574067
v -0.519614 2.308040 -0.845004
v -0.344783 0.576690 -0.614155
v -0.344830 0.576689 -0.349656
v -0.000000 0.579045 -0.614192
v 0.344783 0.576690 -0.614155
v 0.344830 0.576689 -0.349656
v 0.704583 0.775021 -0.587385
v -0.369240 0.744812 -1.031876
v -0.000000 0.746820 -1.120680
v 0.369240 0.744811 -1.031876
v 0.586552 0.782494 -0.893711
v -0.704583 0.801483 -0.587385
v -0.586552 0.782494 -0.893711
v -0.328137 2.539654 -0.249951
v -0.287627 2.539655 -0.106907
v -0.000000 2.539655 0.008954
v -0.000000 2.539654 -0.249951
v 0.287627 2.539655 -0.106907
v 0.328137 2.539654 -0.249951
v -0.460390 2.539655 -0.349951
v -0.370480 2.539655 -0.032474
v 0.000000 2.539655 0.116762
v 0.370480 2.539655 -0.032474
v 0.460390 2.539655 -0.349951
v -0.323985 2.539654 -0.449864
v -0.000000 2.539654 -0.449656
v -0.000000 2.539655 -0.716001
v -0.281421 2.539655 -0.584697
v 0.323985 2.539654 -0.449864
v 0.281421 2.539655 -0.584697
v -0.460390 2.539655 -0.349951
v -0.363546 2.539655 -0.656728
v -0.000000 2.539655 -0.826351
v 0.460390 2.539655 -0.349951
v 0.363546 2.539655 -0.656728
v -0.115468 2.539655 -0.349730
v 0.115468 2.539655 -0.349730
v -0.104376 2.539654 -0.449723
v 0.104376 2.539654 -0.449723
v -0.000000 2.539655 -0.441725
v -0.000000 2.539655 -0.257661
v 0.106425 2.539655 -0.349626
v -0.106425 2.539655 -0.349626
v 0.042790 2.773762 -0.349626
v 0.107967 2.728980 -0.257661
v 0.173145 2.685119 -0.349626
v 0.107967 2.728980 -0.441725
v 0.218814 2.900347 -0.349625
v 0.225737 2.821572 -0.257661
v 0.233370 2.743382 -0.349625
v 0.225737 2.821572 -0.441725
vt 0.391037 0.261807
vt 0.386259 0.198562
vt 0.489206 0.198562
vt 0.489206 0.261807
vt 0.343175 0.255406
vt 0.338361 0.198563
vt 0.596329 0.198562
vt 0.596329 0.261807
vt 0.401090 0.352155
vt 0.489206 0.352155
vt 0.342443 0.328651
vt 0.340926 0.141791
vt 0.388787 0.135390
vt 0.652263 0.198563
vt 0.652263 0.252221
vt 0.596329 0.352155
vt 0.486690 0.395204
vt 0.398845 0.395204
vt 0.334791 0.361687
vt 0.342443 0.068545
vt 0.401090 0.045041
vt 0.489206 0.135390
vt 0.489206 0.198634
vt 0.596329 0.135390
vt 0.652263 0.144975
vt 0.652263 0.317005
vt 0.596329 0.395204
vt 0.334791 0.035509
vt 0.398845 0.001992
vt 0.489206 0.045041
vt 0.596329 0.045041
vt 0.652263 0.080192
vt 0.486690 0.001992
vt 0.596329 0.001992
vt 0.673007 0.595570
vt 0.673007 0.532326
vt 0.768051 0.532326
vt 0.768051 0.595570
vt 0.625109 0.595570
vt 0.625145 0.538727
vt 0.679935 0.441977
vt 0.768051 0.441977
vt 0.875174 0.532326
vt 0.875174 0.595570
vt 0.673007 0.658743
vt 0.625145 0.652342
vt 0.621289 0.465482
vt 0.677690 0.398928
vt 0.765535 0.398928
vt 0.875174 0.441977
vt 0.931108 0.541911
vt 0.931108 0.595570
vt 0.679935 0.749091
vt 0.621289 0.725587
vt 0.768051 0.595499
vt 0.768051 0.658743
vt 0.613636 0.432445
vt 0.875174 0.398928
vt 0.931108 0.477128
vt 0.931108 0.649158
vt 0.875174 0.658743
vt 0.677690 0.792141
vt 0.613636 0.758624
vt 0.768051 0.749091
vt 0.931108 0.713941
vt 0.875174 0.749091
vt 0.765535 0.792141
vt 0.875174 0.792141
vt 0.511167 0.798475
vt 0.511167 0.722563
vt 0.538635 0.722563
vt 0.538635 0.798475
vt 0.545714 0.798475
vt 0.545714 0.722563
vt 0.573182 0.722563
vt 0.573182 0.798475
vt 0.580262 0.795916
vt 0.580262 0.722563
vt 0.607730 0.722563
vt 0.607730 0.795916
vt 0.614810 0.869217
vt 0.614810 0.795864
vt 0.642278 0.795864
vt 0.642278 0.869218
vt 0.671347 0.869117
vt 0.649358 0.853118
vt 0.671347 0.837239
vt 0.693369 0.853118
vt 0.649358 0.834314
vt 0.671347 0.825406
vt 0.693369 0.834314
vt 0.649358 0.795864
vt 0.671347 0.795864
vt 0.693369 0.795864
vt 0.080582 0.147691
vt 0.088313 0.077207
vt 0.164665 0.057906
vt 0.164665 0.112008
vt 0.046735 0.105161
vt 0.023085 0.169944
vt 0.065890 0.026961
vt 0.164665 0.001992
vt 0.241017 0.077207
vt 0.248748 0.147691
vt 0.001858 0.070011
vt 0.060176 0.223603
vt 0.023085 0.223603
vt 0.263440 0.026961
vt 0.282595 0.105161
vt 0.306245 0.169944
vt 0.023085 0.277191
vt 0.082156 0.296956
vt 0.327471 0.070011
vt 0.269154 0.223603
vt 0.306245 0.223603
vt 0.046735 0.341974
vt 0.088313 0.369928
vt 0.306245 0.277191
vt 0.247174 0.296956
vt 0.164665 0.337514
vt 0.164665 0.389229
vt 0.001858 0.377125
vt 0.065890 0.420174
vt 0.282595 0.341974
vt 0.241017 0.369928
vt 0.164665 0.445143
vt 0.263440 0.420174
vt 0.327471 0.377125
vt 0.255708 0.860186
vt 0.264902 0.825983
vt 0.330181 0.798280
vt 0.330181 0.860186
vt 0.225692 0.884097
vt 0.246098 0.808185
vt 0.330181 0.772502
vt 0.395460 0.825983
vt 0.404654 0.860186
vt 0.330181 0.862030
vt 0.306027 0.884019
vt 0.303974 0.884044
vt 0.414264 0.808185
vt 0.434669 0.884097
vt 0.356387 0.884044
vt 0.354335 0.884019
vt 0.306492 0.907953
vt 0.330181 0.906041
vt 0.330181 0.907937
vt 0.353870 0.907953
vt 0.225692 0.884097
vt 0.256650 0.907987
vt 0.330181 0.971623
vt 0.266310 0.940227
vt 0.434669 0.884097
vt 0.403711 0.907987
vt 0.394051 0.940227
vt 0.247671 0.957450
vt 0.330181 0.998008
vt 0.412690 0.957450
vt 0.486797 0.637135
vt 0.423553 0.637145
vt 0.423624 0.558884
vt 0.486806 0.558884
vt 0.423553 0.718839
vt 0.480396 0.718794
vt 0.423553 0.480622
vt 0.486797 0.480633
vt 0.586678 0.642685
vt 0.607912 0.558884
vt 0.553642 0.692006
vt 0.423553 0.398928
vt 0.480396 0.398974
vt 0.586678 0.475082
vt 0.553642 0.425762
vt 0.354585 0.687074
vt 0.354576 0.608823
vt 0.417829 0.608823
vt 0.417829 0.687084
vt 0.254705 0.692624
vt 0.233471 0.608823
vt 0.354585 0.530572
vt 0.417829 0.530561
vt 0.417759 0.768778
vt 0.360986 0.768733
vt 0.254705 0.525021
vt 0.287741 0.741945
vt 0.360986 0.448913
vt 0.417759 0.448867
vt 0.287741 0.475701
vt 0.011025 0.600766
vt 0.020371 0.512921
vt 0.119386 0.513401
vt 0.119386 0.599089
vt 0.035585 0.448867
vt 0.119386 0.449275
vt 0.218401 0.512921
vt 0.227747 0.600766
vt 0.020611 0.710406
vt 0.119386 0.710406
vt 0.203188 0.448867
vt 0.218161 0.710406
vt 0.001858 0.823769
vt 0.110219 0.825447
vt 0.110219 0.911135
vt 0.011204 0.911614
vt 0.011444 0.714130
vt 0.110219 0.714130
vt 0.218580 0.823769
vt 0.209234 0.911614
vt 0.110219 0.975260
vt 0.026418 0.975668
vt 0.208995 0.714130
vt 0.194021 0.975668
vt 0.442071 0.890729
vt 0.442071 0.806646
vt 0.469539 0.806646
vt 0.469539 0.890729
vt 0.442071 0.722563
vt 0.469539 0.722563
vt 0.504087 0.805072
vt 0.504087 0.887582
vt 0.476619 0.887582
vt 0.476619 0.805072
vt 0.504087 0.722563
vt 0.476619 0.722563
vt 0.722292 0.795864
vt 0.744282 0.795864
vt 0.744282 0.834314
vt 0.722292 0.843409
vt 0.744282 0.853118
vt 0.722292 0.869117
vt 0.700271 0.795864
vt 0.700271 0.834314
vt 0.773205 0.822593
vt 0.751183 0.837386
vt 0.751183 0.797436
vt 0.773205 0.795864
vn -0.367277 0.000112 0.930111
vn -0.349539 -0.026487 0.936547
vn 0.000000 -0.011018 0.999939
vn -0.000000 0.000030 1.000000
vn 0.367277 0.000112 0.930111
vn 0.349539 -0.026487 0.936547
vn 0.537292 -0.050446 0.841886
vn 0.537363 0.002192 0.843348
vn -0.349775 0.022223 0.936570
vn -0.000000 0.008880 0.999961
vn 0.349775 0.022223 0.936570
vn 0.536401 0.042739 0.842880
vn -0.267675 0.931308 0.247013
vn -0.159884 0.931559 0.326550
vn -0.000000 0.935427 0.353519
vn 0.000000 0.935427 0.353519
vn 0.267675 0.931308 0.247013
vn 0.159884 0.931559 0.326549
vn 0.315458 0.919697 0.233760
vn 0.397151 0.909495 0.122838
vn 0.000000 1.000000 0.000000
vn 0.000000 1.000000 -0.000001
vn -0.000000 1.000000 -0.000000
vn 0.000000 1.000000 -0.000000
vn 0.431785 0.899127 0.071641
vn 0.431785 0.899127 0.071641
vn -0.235894 -0.953260 0.188813
vn -0.293955 -0.955819 0.000312
vn 0.000000 -1.000000 -0.000008
vn -0.000000 -0.973740 0.227661
vn 0.218498 -0.954767 0.201688
vn 0.261352 -0.964974 0.022809
vn 0.481985 -0.875194 0.041545
vn 0.465952 -0.873873 0.138685
vn -0.165422 -0.934305 0.315770
vn -0.000000 -0.940163 0.340726
vn 0.159743 -0.933719 0.320392
vn 0.440947 -0.861231 0.252678
vn 0.923276 -0.287180 0.255126
vn 0.943907 -0.324214 0.062652
vn 0.998012 0.002595 0.062971
vn 0.965225 0.002591 0.261408
vn 0.822912 -0.305436 0.479087
vn 0.918707 0.002290 0.394933
vn 0.984104 0.167729 0.058360
vn 0.955407 0.128936 0.265657
vn 0.915193 0.101522 0.390019
vn -0.944180 -0.327223 0.038073
vn -0.923988 -0.294234 0.244280
vn -0.965379 0.002665 0.260839
vn -0.998242 0.002778 0.059198
vn -0.823700 -0.311667 0.473690
vn -0.919085 0.002309 0.394052
vn -0.955407 0.128936 0.265657
vn -0.984104 0.167729 0.058360
vn -0.915193 0.101522 0.390019
vn -0.000000 1.000000 -0.000000
vn -0.000000 1.000000 0.000000
vn -0.501538 -0.858739 0.105014
vn -0.457355 -0.857474 0.235723
vn -0.529643 -0.848220 0.000563
vn -0.397151 0.909495 0.122838
vn -0.431785 0.899127 0.071641
vn -0.431785 0.899127 0.071641
vn -0.315458 0.919697 0.233761
vn -0.537363 0.002192 0.843349
vn -0.536401 0.042739 0.842880
vn -0.537292 -0.050446 0.841886
vn -0.277898 0.643713 0.713027
vn -0.000000 0.647228 0.762296
vn -0.000000 0.647228 0.762296
vn -0.277898 0.643713 0.713027
vn 0.277898 0.643712 0.713027
vn 0.594564 0.666727 0.449410
vn 0.594563 0.666727 0.449410
vn 0.277898 0.643713 0.713027
vn 0.733911 0.659898 0.160965
vn 0.733911 0.659898 0.160965
vn 0.755479 0.655173 0.000000
vn 0.755479 0.655173 0.000000
vn -0.755479 0.655173 0.000000
vn -0.733911 0.659898 0.160964
vn -0.733911 0.659898 0.160964
vn -0.755479 0.655173 0.000000
vn -0.594563 0.666727 0.449410
vn -0.594563 0.666727 0.449410
vn 0.808314 -0.543311 0.226806
vn 0.823830 -0.564316 0.053395
vn 0.000000 -0.443001 0.896521
vn -0.336739 -0.449177 0.827555
vn -0.330008 -0.448546 0.830603
vn -0.000000 -0.443001 0.896521
vn 0.669561 -0.504396 0.545227
vn 0.336739 -0.449177 0.827555
vn 0.330008 -0.448546 0.830603
vn -0.674444 -0.505443 0.538195
vn -0.815811 -0.543373 0.197988
vn -0.826408 -0.563071 0.000530
vn -0.367277 0.000112 -0.930112
vn -0.000000 0.000030 -1.000000
vn -0.000000 -0.011018 -0.999939
vn -0.349539 -0.026487 -0.936547
vn 0.367277 0.000112 -0.930112
vn 0.537362 0.002192 -0.843349
vn 0.537292 -0.050446 -0.841887
vn 0.349539 -0.026487 -0.936547
vn -0.349775 0.022223 -0.936570
vn -0.000000 0.008880 -0.999961
vn 0.349775 0.022223 -0.936570
vn 0.536401 0.042739 -0.842881
vn -0.266843 0.933026 -0.241366
vn 0.000000 0.935839 -0.352428
vn 0.000000 0.935839 -0.352428
vn -0.167937 0.932044 -0.321077
vn 0.266843 0.933026 -0.241366
vn 0.385214 0.913962 -0.127609
vn 0.302087 0.926625 -0.223853
vn 0.167937 0.932044 -0.321077
vn 0.000000 1.000000 -0.000000
vn 0.000000 1.000000 0.000000
vn 0.000000 1.000000 0.000001
vn 0.000000 1.000000 0.000001
vn 0.000000 1.000000 0.000001
vn 0.425298 0.901722 -0.077581
vn 0.425298 0.901722 -0.077581
vn -0.235828 -0.953275 -0.188816
vn -0.000000 -0.973750 -0.227618
vn 0.000000 -1.000000 0.000008
vn -0.293651 -0.955913 -0.000312
vn 0.212878 -0.956257 -0.200639
vn 0.455380 -0.880137 -0.134117
vn 0.471270 -0.881704 -0.022415
vn 0.253843 -0.967168 -0.012228
vn -0.165422 -0.934305 -0.315769
vn -0.000000 -0.940163 -0.340726
vn 0.155655 -0.933266 -0.323706
vn 0.428895 -0.863648 -0.264880
vn 0.922834 -0.288540 -0.255191
vn 0.965271 0.002556 -0.261239
vn 0.998121 0.002583 -0.061219
vn 0.946659 -0.318116 -0.051365
vn 0.822411 -0.301005 -0.482738
vn 0.918438 0.002277 -0.395558
vn 0.955393 0.128920 -0.265714
vn 0.984105 0.167713 -0.058393
vn 0.915193 0.101522 -0.390019
vn -0.944216 -0.327114 -0.038109
vn -0.998240 0.002783 -0.059231
vn -0.965363 0.002665 -0.260898
vn -0.923981 -0.294195 -0.244354
vn -0.919085 0.002309 -0.394052
vn -0.823700 -0.311667 -0.473690
vn -0.984105 0.167713 -0.058393
vn -0.955393 0.128920 -0.265714
vn -0.915193 0.101522 -0.390019
vn -0.000000 1.000000 0.000001
vn -0.000000 1.000000 0.000001
vn -0.000000 1.000000 0.000001
vn -0.501527 -0.858740 -0.105049
vn -0.457355 -0.857474 -0.235723
vn -0.529643 -0.848221 -0.000564
vn -0.385214 0.913962 -0.127609
vn -0.425298 0.901722 -0.077582
vn -0.425298 0.901722 -0.077582
vn -0.302087 0.926625 -0.223853
vn -0.537362 0.002192 -0.843349
vn -0.536401 0.042739 -0.842881
vn -0.537292 -0.050446 -0.841887
vn -0.277898 0.643713 -0.713027
vn -0.277898 0.643713 -0.713027
vn 0.000000 0.647228 -0.762296
vn 0.000000 0.647228 -0.762296
vn 0.277898 0.643713 -0.713027
vn 0.277898 0.643713 -0.713027
vn 0.594563 0.666727 -0.449410
vn 0.594563 0.666727 -0.449410
vn 0.733895 0.659896 -0.161045
vn 0.733895 0.659896 -0.161045
vn 0.755479 0.655173 0.000000
vn 0.755479 0.655173 0.000000
vn -0.755479 0.655173 0.000000
vn -0.755479 0.655173 0.000000
vn -0.733895 0.659896 -0.161045
vn -0.733895 0.659896 -0.161045
vn -0.594563 0.666727 -0.449410
vn -0.594563 0.666727 -0.449410
vn 0.825332 -0.563927 -0.028521
vn 0.807428 -0.544671 -0.226701
vn -0.000000 -0.443001 -0.896521
vn -0.000000 -0.443001 -0.896521
vn -0.330008 -0.448546 -0.830603
vn -0.336739 -0.449177 -0.827555
vn 0.665938 -0.503602 -0.550374
vn 0.330008 -0.448546 -0.830603
vn 0.336739 -0.449177 -0.827555
vn -0.674444 -0.505443 -0.538195
vn -0.815798 -0.543359 -0.198077
vn -0.826408 -0.563071 -0.000531
vn 0.000000 1.000000 0.000001
vn 0.000000 1.000000 0.000000
vn 0.000000 1.000000 0.000001
vn -0.000000 1.000000 0.000001
vn -0.000000 1.000000 0.000001
vn 0.000000 1.000000 -0.000001
vn -0.000000 1.000000 -0.000002
vn 0.000000 1.000000 0.000001
vn 0.000000 1.000000 0.000001
vn -0.000000 1.000000 0.000000
vn -0.000000 1.000000 0.000000
vn -0.962161 0.000000 0.272482
vn -0.962161 0.000000 0.272482
vn -0.962161 0.000000 0.272482
vn -0.962161 0.000000 0.272482
vn -0.373642 0.000000 0.927573
vn -0.373642 0.000000 0.927573
vn -0.373642 0.000000 0.927573
vn -0.373642 0.000000 0.927573
vn 0.373641 0.000000 0.927573
vn 0.373641 0.000000 0.927573
vn 0.373641 0.000000 0.927573
vn 0.373641 0.000000 0.927573
vn 0.962161 0.000000 0.272482
vn 0.962161 0.000000 0.272482
vn 0.962161 0.000000 0.272482
vn 0.962161 0.000000 0.272482
vn -0.422818 0.000000 -0.906215
vn -0.422818 0.000000 -0.906215
vn -0.422818 0.000000 -0.906215
vn -0.422818 0.000000 -0.906215
vn -0.953613 0.000000 -0.301036
vn -0.953613 0.000000 -0.301036
vn -0.953613 0.000000 -0.301036
vn -0.953613 0.000000 -0.301036
vn 0.953613 0.000000 -0.301036
vn 0.953613 0.000000 -0.301036
vn 0.953613 0.000000 -0.301036
vn 0.953613 0.000000 -0.301036
vn 0.422818 0.000000 -0.906215
vn 0.422818 0.000000 -0.906215
vn 0.422818 0.000000 -0.906215
vn 0.422818 0.000000 -0.906215
vn 0.995728 0.092339 0.000000
vn 0.995728 0.092339 0.000000
vn 0.995728 0.092339 0.000000
vn 0.995728 0.092339 0.000000
vn 0.000000 1.000000 -0.000001
vn -0.000000 1.000000 -0.000003
vn 0.000002 1.000000 -0.000003
vn -0.000002 1.000000 -0.000003
vn 0.000000 1.000000 0.000002
vn -0.000000 1.000000 0.000002
vn -0.000000 1.000000 0.000002
vn 0.000000 1.000000 0.000002
vn 0.000000 1.000000 0.000002
vn -0.627807 0.381314 0.678571
vn -0.627807 0.381314 0.678571
vn -0.565540 0.499451 0.656287
vn -0.578874 0.476467 0.661728
vn 0.646794 -0.337487 0.683930
vn 0.646794 -0.337487 0.683930
vn 0.602958 -0.445582 0.661739
vn 0.610761 -0.428215 0.666035
vn 0.647239 -0.337719 -0.683394
vn 0.647239 -0.337719 -0.683394
vn 0.611155 -0.428506 -0.665486
vn 0.603349 -0.445864 -0.661192
vn -0.628232 0.381572 -0.678032
vn -0.628232 0.381572 -0.678032
vn -0.579239 0.476788 -0.661177
vn -0.565903 0.499759 -0.655740
vn -0.473130 0.634201 0.611504
vn -0.473130 0.634201 0.611504
vn 0.514221 -0.606733 0.606179
vn 0.514221 -0.606733 0.606179
vn 0.514499 -0.607060 -0.605614
vn 0.514499 -0.607060 -0.605614
vn -0.473390 0.634550 -0.610941
vn -0.473390 0.634550 -0.610941
s 1
g pCube3
usemtl lambert2SG
f 27/189/1 25/190/2 2/191/3 5/192/4
f 24/17/5 22/18/6 3/9/7 6/10/8
f 26/197/9 27/189/1 5/192/4 8/198/10
f 23/27/11 24/17/5 6/10/8 9/16/12
s 2
f 28/95/13 29/96/14 30/97/15 31/98/16
f 32/104/17 33/103/18 34/109/19 35/110/20
s 3
f 102/129/21 103/130/22 104/131/23 105/132/24
s 2
f 37/114/25 32/104/17 35/110/20 38/115/26
s 4
f 42/159/27 43/160/28 44/161/29 45/162/30
f 46/166/31 47/165/32 48/170/33 49/171/34
f 50/167/35 42/159/27 45/162/30 51/168/36
f 52/172/37 46/166/31 49/171/34 53/173/38
s 5
f 19/1/39 17/2/40 15/3/41 20/4/42
f 3/9/43 19/1/39 20/4/42 6/10/44
f 20/4/42 15/3/41 13/7/45 11/8/46
f 6/10/44 20/4/42 11/8/46 9/16/47
f 16/35/48 18/36/49 21/37/50 14/38/51
f 18/36/49 1/41/52 4/42/53 21/37/50
f 14/38/51 21/37/50 10/43/54 12/44/55
f 21/37/50 4/42/53 7/50/56 10/43/54
s 4
f 45/162/30 46/166/31 52/172/37 51/168/36
f 44/161/29 47/165/32 46/166/31 45/162/30
s 3
f 104/131/23 106/136/57 107/137/58 105/132/24
s 2
f 30/97/15 33/103/18 32/104/17 31/98/16
s 1
f 5/192/4 24/196/5 23/200/11 8/198/10
f 2/191/3 22/195/6 24/196/5 5/192/4
s 4
f 54/164/59 42/159/27 50/167/35 55/169/60
f 56/163/61 43/160/28 42/159/27 54/164/59
s 2
f 39/100/62 28/95/13 36/106/63 40/107/64
f 41/99/65 29/96/14 28/95/13 39/100/62
s 1
f 4/42/66 27/49/1 26/58/9 7/50/67
f 1/41/68 25/48/2 27/49/1 4/42/66
s 7
f 26/101/69 8/102/70 30/97/71 29/96/72
f 23/108/73 9/113/74 34/109/75 33/103/76
f 9/16/74 11/8/77 35/15/78 34/26/75
f 11/8/77 13/7/79 38/14/80 35/15/78
f 8/102/70 23/108/73 33/103/76 30/97/71
f 12/44/81 10/43/82 39/51/83 40/52/84
f 7/105/85 26/101/69 29/96/72 41/99/86
f 10/43/82 7/50/85 41/59/86 39/51/83
s 5
f 17/2/40 19/1/39 49/5/87 48/6/88
f 2/191/89 25/190/90 50/193/91 51/194/92
f 19/1/39 3/9/43 53/11/93 49/5/87
f 3/9/43 22/18/94 52/19/95 53/11/93
f 22/195/94 2/191/89 51/194/92 52/199/95
f 25/48/90 1/41/52 55/47/96 50/57/91
f 1/41/52 18/36/49 54/40/97 55/47/96
f 18/36/49 16/35/48 56/39/98 54/40/97
s 11
f 79/201/99 61/202/100 58/203/101 77/204/102
f 76/33/103 62/30/104 59/21/105 74/29/106
f 78/205/107 64/206/108 61/202/100 79/201/99
f 75/34/109 65/31/110 62/30/104 76/33/103
s 13
f 80/112/111 83/120/112 82/121/113 81/117/114
f 84/119/115 87/118/116 86/124/117 85/125/118
s 15
f 113/150/119 126/145/120 114/147/121 115/151/122 116/152/123
s 13
f 37/114/124 38/115/125 87/118/116 84/119/115
s 16
f 90/174/126 92/175/127 44/176/128 91/177/129
f 93/180/130 95/186/131 48/187/132 94/181/133
f 96/178/134 97/179/135 92/175/127 90/174/126
f 98/184/136 99/188/137 95/186/131 93/180/130
s 18
f 71/13/138 72/22/139 69/23/140 17/2/141
f 59/21/142 62/30/143 72/22/139 71/13/138
f 72/22/139 67/24/144 13/7/145 69/23/140
f 62/30/143 65/31/146 67/24/144 72/22/139
f 16/35/147 68/55/148 73/56/149 70/45/150
f 70/45/150 73/56/149 60/64/151 57/53/152
f 68/55/148 12/44/153 66/61/154 73/56/149
f 73/56/149 66/61/154 63/66/155 60/64/151
s 16
f 92/175/127 97/179/135 98/184/136 93/180/130
f 44/176/128 92/175/127 93/180/130 94/181/133
s 15
f 115/151/122 114/147/121 127/148/156 117/154/157 118/155/158
s 13
f 82/121/113 83/120/112 84/119/115 85/125/118
s 11
f 61/202/100 64/206/108 75/211/109 76/207/103
f 58/203/101 61/202/100 76/207/103 74/208/106
s 16
f 100/183/159 101/185/160 96/178/134 90/174/126
f 56/182/161 100/183/159 90/174/126 91/177/129
s 13
f 88/111/162 40/107/163 36/106/164 80/112/111
f 89/116/165 88/111/162 80/112/111 81/117/114
s 11
f 60/64/166 63/66/167 78/68/107 79/67/99
f 57/53/168 60/64/166 79/67/99 77/62/102
s 20
f 78/123/169 81/117/170 82/121/171 64/126/172
f 75/127/173 85/125/174 86/124/175 65/128/176
f 65/31/176 86/32/175 87/25/177 67/24/178
f 67/24/178 87/25/177 38/14/179 13/7/180
f 64/126/172 82/121/171 85/125/174 75/127/173
f 12/44/181 40/52/182 88/60/183 66/61/184
f 63/122/185 89/116/186 81/117/170 78/123/169
f 66/61/184 88/60/183 89/65/186 63/66/185
s 18
f 17/2/141 48/6/187 95/12/188 71/13/138
f 58/203/189 97/209/190 96/210/191 77/204/192
f 71/13/138 95/12/188 99/20/193 59/21/142
f 59/21/142 99/20/193 98/28/194 74/29/195
f 74/208/195 98/212/194 97/209/190 58/203/189
f 77/62/192 96/63/191 101/54/196 57/53/152
f 57/53/152 101/54/196 100/46/197 70/45/150
f 70/45/150 100/46/197 56/39/198 16/35/147
s 3
f 108/133/199 109/134/200 103/130/22 102/129/21
f 109/134/200 110/135/201 104/131/23 103/130/22
f 110/135/201 111/141/202 106/136/57 104/131/23
f 111/141/202 112/142/203 107/137/58 106/136/57
s 15
f 119/149/204 124/140/205 126/145/120 113/150/119
f 121/157/206 120/156/207 116/152/123 115/151/122
f 120/156/207 119/149/204 113/150/119 116/152/123
f 122/153/208 123/158/209 118/155/158 117/154/157
f 123/158/209 121/157/206 115/151/122 118/155/158
s off
f 36/69/210 28/70/211 109/71/212 108/72/213
f 28/213/214 31/214/215 110/215/216 109/216/217
f 31/214/218 32/217/219 111/218/220 110/215/221
f 32/73/222 37/74/223 112/75/224 111/76/225
f 83/219/226 80/220/227 120/221/228 121/222/229
f 80/77/230 36/78/231 119/79/232 120/80/233
f 37/81/234 84/82/235 123/83/236 122/84/237
f 84/223/238 83/219/239 121/222/240 123/224/241
f 136/85/242 137/86/243 138/87/244 139/88/245
s 15
f 127/148/156 125/143/246 122/153/208 117/154/157
f 128/146/247 130/144/248 125/143/246 127/148/156 114/147/121
f 126/145/120 124/140/205 131/139/249 128/146/247 114/147/121
s 3
f 129/138/250 131/139/251 124/140/252 108/133/199 102/129/21 105/132/24
f 112/142/203 125/143/253 130/144/254 129/138/250 105/132/24 107/137/58
s 23
f 131/225/255 129/226/256 133/227/257 132/228/258
s 24
f 129/92/259 130/93/260 134/90/261 133/89/262
s 25
f 130/93/263 128/94/264 135/91/265 134/90/266
s 26
f 128/231/267 131/225/268 132/228/269 135/232/270
s 23
f 132/228/258 133/227/257 137/229/271 136/230/272
s 24
f 133/89/262 134/90/261 138/87/273 137/86/274
s 25
f 134/90/266 135/91/265 139/88/275 138/87/276
s 26
f 135/233/270 132/234/269 136/235/277 139/236/278
