# This file uses centimeters as units for non-parametric coordinates.

mtllib test.mtl
g default
v -0.500000 0.113240 0.500000
v 0.500000 0.113240 0.500000
v -0.500000 1.113240 0.500000
v 0.500000 1.113240 0.500000
v -0.500000 1.113240 -0.500000
v 0.500000 1.113240 -0.500000
v -0.500000 0.113240 -0.500000
v 0.500000 0.113240 -0.500000
v 0.000000 0.113240 0.500000
v 0.000000 0.113240 -0.500000
v 0.000000 1.113240 -0.500000
v 0.000000 1.113240 0.500000
v -0.500000 1.113240 -0.200000
v 0.000000 1.113240 -0.200000
v 0.500000 1.113240 -0.200000
v 0.500000 0.113240 -0.200000
v 0.000000 0.113240 -0.200000
v -0.500000 0.113240 -0.200000
v -0.500000 1.939875 0.500000
v 0.000000 1.611580 0.500000
v 0.000000 1.611580 -0.200000
v -0.500000 1.611580 -0.200000
vt 0.428497 0.598385
vt 0.149876 0.598385
vt 0.149876 0.514799
vt 0.428497 0.514799
vt 0.149876 0.793419
vt 0.428497 0.793419
vt 0.288683 0.001870
vt 0.372269 0.001870
vt 0.372269 0.280490
vt 0.288683 0.280490
vt 0.567303 0.001870
vt 0.567303 0.280490
vt 0.567303 0.510807
vt 0.372269 0.419338
vt 0.001992 0.908859
vt 0.001992 0.713825
vt 0.140840 0.713825
vt 0.140840 0.908859
vt 0.714489 0.280490
vt 0.714489 0.196904
vt 0.853799 0.196904
vt 0.853799 0.280490
vt 0.575179 0.196904
vt 0.575179 0.280490
vt 0.714489 0.001870
vt 0.853799 0.001870
vt 0.713252 0.598385
vt 0.573942 0.598385
vt 0.573942 0.514799
vt 0.713252 0.514799
vt 0.573942 0.793419
vt 0.713252 0.793419
vt 0.434632 0.514799
vt 0.434632 0.598385
vt 0.434632 0.793419
vt 0.004431 0.514799
vt 0.143741 0.514799
vt 0.143741 0.709833
vt 0.004431 0.709833
vt 0.141302 0.280490
vt 0.141302 0.001870
vt 0.280612 0.001870
vt 0.280612 0.280490
vt 0.001992 0.001870
vt 0.001992 0.280490
vt 0.141302 0.419338
vt 0.001992 0.510807
vt 0.858698 0.563102
vt 0.858698 0.284482
vt 0.998008 0.284482
vt 0.998008 0.563102
vt 0.719388 0.284482
vt 0.719388 0.563102
vt 0.287206 0.797411
vt 0.287206 0.936721
vt 0.148358 0.936721
vt 0.148358 0.797411
vn 0.000000 0.000000 1.000000
vn 0.000000 0.000000 1.000000
vn 0.000000 0.000000 1.000000
vn 0.000000 0.000000 1.000000
vn 0.000000 1.000000 0.000000
vn 0.000000 1.000000 0.000000
vn 0.000000 1.000000 0.000000
vn 0.000000 1.000000 0.000000
vn 0.000000 0.000000 -1.000000
vn 0.000000 0.000000 -1.000000
vn 0.000000 0.000000 -1.000000
vn 0.000000 0.000000 -1.000000
vn 0.000000 -1.000000 0.000000
vn 0.000000 -1.000000 0.000000
vn 0.000000 -1.000000 0.000000
vn 0.000000 -1.000000 0.000000
vn 1.000000 0.000000 0.000000
vn 1.000000 0.000000 0.000000
vn 1.000000 0.000000 0.000000
vn 1.000000 0.000000 0.000000
vn -1.000000 0.000000 0.000000
vn -1.000000 0.000000 0.000000
vn -1.000000 0.000000 0.000000
vn -1.000000 0.000000 0.000000
vn 0.000000 -1.000000 0.000000
vn 0.000000 -1.000000 0.000000
vn 0.000000 0.000000 -1.000000
vn 0.000000 0.000000 -1.000000
vn 0.000000 1.000000 0.000000
vn 0.000000 1.000000 0.000000
vn 0.000000 0.000000 1.000000
vn 0.000000 0.000000 1.000000
vn 0.304452 0.927372 -0.217466
vn 0.304452 0.927371 -0.217466
vn 0.304452 0.927371 -0.217466
vn 0.304452 0.927371 -0.217466
vn 0.000000 1.000000 0.000000
vn 0.000000 1.000000 0.000000
vn 1.000000 0.000000 0.000000
vn 1.000000 0.000000 0.000000
vn 0.000000 -1.000000 0.000000
vn 0.000000 -1.000000 0.000000
vn 0.000000 -1.000000 0.000000
vn -1.000000 0.000000 0.000000
vn -1.000000 0.000000 0.000000
vn 0.000000 0.000000 1.000000
vn 0.000000 0.000000 1.000000
vn 1.000000 0.000000 0.000000
vn 1.000000 0.000000 0.000000
vn 1.000000 0.000000 0.000000
vn 1.000000 0.000000 0.000000
vn 0.000000 0.000000 -1.000000
vn 0.000000 0.000000 -1.000000
vn 0.000000 0.000000 -1.000000
vn 0.000000 0.000000 -1.000000
vn -1.000000 0.000000 0.000000
vn -1.000000 0.000000 0.000000
s 1
g pCube1
usemtl lambert2SG
f 12/40/1 9/41/2 2/42/3 4/43/4
s 2
f 11/19/5 14/20/6 15/21/7 6/22/8
s 3
f 10/48/9 11/49/10 6/50/11 8/51/12
s 4
f 16/27/13 17/28/14 10/29/15 8/30/16
s 5
f 15/1/17 16/2/18 8/3/19 6/4/20
s 6
f 7/7/21 18/8/22 13/9/23 5/10/24
s 4
f 7/33/25 10/29/15 17/28/14 18/34/26
s 3
f 5/52/27 11/49/10 10/48/9 7/53/28
s 2
f 13/23/29 14/20/6 11/19/5 5/24/30
s 1
f 1/44/31 9/41/2 12/40/1 3/45/32
s off
f 19/36/33 20/37/34 21/38/35 22/39/36
s 2
f 15/21/7 14/20/6 12/25/37 4/26/38
s 5
f 2/5/39 16/2/18 15/1/17 4/6/40
s 4
f 9/31/41 17/28/14 16/27/13 2/32/42
f 18/34/26 17/28/14 9/31/41 1/35/43
s 6
f 13/9/23 18/8/22 1/11/44 3/12/45
s 1
f 3/45/32 12/40/1 20/46/46 19/47/47
s off
f 12/15/48 14/16/49 21/17/50 20/18/51
f 14/54/52 13/55/53 22/56/54 21/57/55
s 6
f 13/9/23 3/12/45 19/13/56 22/14/57
