# Blender v2.90.1 OBJ File: ''
# www.blender.org
mtllib untitled.mtl
o test
v 0.000000 1.113240 0.500000
v 0.000000 0.113240 0.500000
v 0.500000 0.113240 0.500000
v 0.500000 1.113240 0.500000
v 0.000000 1.113240 -0.500000
v 0.000000 1.113240 -0.200000
v 0.500000 1.113240 -0.200000
v 0.500000 1.113240 -0.500000
v 0.000000 0.113240 -0.500000
v 0.500000 0.113240 -0.500000
v 0.500000 0.113240 -0.200000
v 0.000000 0.113240 -0.200000
v -0.500000 0.113240 -0.500000
v -0.500000 0.113240 -0.200000
v -0.500000 1.113240 -0.200000
v -0.500000 1.113240 -0.500000
v -0.500000 0.113240 0.500000
v -0.500000 1.113240 0.500000
v -0.500000 1.939875 0.500000
v 0.000000 1.611580 0.500000
v 0.000000 1.611580 -0.200000
v -0.500000 1.611580 -0.200000
vt 0.004431 0.514799
vt 0.143741 0.514799
vt 0.143741 0.709833
vt 0.004431 0.709833
vt 0.001992 0.908859
vt 0.001992 0.713825
vt 0.140840 0.713825
vt 0.140840 0.908859
vt 0.287206 0.797411
vt 0.287206 0.936721
vt 0.148358 0.936721
vt 0.148358 0.797411
vt 0.141302 0.280490
vt 0.141302 0.001870
vt 0.280612 0.001870
vt 0.280612 0.280490
vt 0.714489 0.280490
vt 0.714489 0.196904
vt 0.853799 0.196904
vt 0.853799 0.280490
vt 0.858698 0.563102
vt 0.858698 0.284482
vt 0.998008 0.284482
vt 0.998008 0.563102
vt 0.713252 0.598385
vt 0.573942 0.598385
vt 0.573942 0.514799
vt 0.713252 0.514799
vt 0.428497 0.598385
vt 0.149876 0.598385
vt 0.149876 0.514799
vt 0.428497 0.514799
vt 0.288683 0.001870
vt 0.372269 0.001870
vt 0.372269 0.280490
vt 0.288683 0.280490
vt 0.434632 0.514799
vt 0.434632 0.598385
vt 0.719388 0.284482
vt 0.719388 0.563102
vt 0.575179 0.196904
vt 0.575179 0.280490
vt 0.001992 0.001870
vt 0.001992 0.280490
vt 0.714489 0.001870
vt 0.853799 0.001870
vt 0.149876 0.793419
vt 0.428497 0.793419
vt 0.573942 0.793419
vt 0.713252 0.793419
vt 0.434632 0.793419
vt 0.567303 0.001870
vt 0.567303 0.280490
vt 0.141302 0.419338
vt 0.001992 0.510807
vt 0.567303 0.510807
vt 0.372269 0.419338
vn 0.3045 0.9274 -0.2175
vn 1.0000 0.0000 0.0000
vn 0.0000 0.0000 -1.0000
vn 0.0000 -0.0000 1.0000
vn 0.0000 1.0000 0.0000
vn 0.0000 -1.0000 -0.0000
vn -1.0000 0.0000 0.0000
usemtl lambert2SG
s off
f 19/1/1 20/2/1 21/3/1 22/4/1
f 1/5/2 6/6/2 21/7/2 20/8/2
f 6/9/3 15/10/3 22/11/3 21/12/3
s 1
f 1/13/4 2/14/4 3/15/4 4/16/4
f 5/17/5 6/18/5 7/19/5 8/20/5
f 9/21/3 5/22/3 8/23/3 10/24/3
f 11/25/6 12/26/6 9/27/6 10/28/6
f 7/29/2 11/30/2 10/31/2 8/32/2
f 13/33/7 14/34/7 15/35/7 16/36/7
f 13/37/6 9/27/6 12/26/6 14/38/6
f 16/39/3 5/22/3 9/21/3 13/40/3
f 15/41/5 6/18/5 5/17/5 16/42/5
f 17/43/4 2/14/4 1/13/4 18/44/4
f 7/19/5 6/18/5 1/45/5 4/46/5
f 3/47/2 11/30/2 7/29/2 4/48/2
f 2/49/6 12/26/6 11/25/6 3/50/6
f 14/38/6 12/26/6 2/49/6 17/51/6
f 15/35/7 14/34/7 17/52/7 18/53/7
f 18/44/4 1/13/4 20/54/4 19/55/4
f 15/35/7 18/53/7 19/56/7 22/57/7
